<svg xmlns="http://www.w3.org/2000/svg" viewBox="0 0 40 40">
  <rect width="40" height="40" rx="6" fill="#1a1a2e"/>
  <!-- CPU chip -->
  <rect x="10" y="10" width="20" height="20" rx="3" fill="none" stroke="#4fc3f7" stroke-width="2"/>
  <rect x="14" y="14" width="12" height="12" rx="1" fill="#4fc3f7" opacity="0.6"/>
  <!-- Pins top/bottom/left/right -->
  <line x1="14" y1="10" x2="14" y2="7" stroke="#4fc3f7" stroke-width="1.5"/>
  <line x1="20" y1="10" x2="20" y2="7" stroke="#4fc3f7" stroke-width="1.5"/>
  <line x1="26" y1="10" x2="26" y2="7" stroke="#4fc3f7" stroke-width="1.5"/>
  <line x1="14" y1="30" x2="14" y2="33" stroke="#4fc3f7" stroke-width="1.5"/>
  <line x1="20" y1="30" x2="20" y2="33" stroke="#4fc3f7" stroke-width="1.5"/>
  <line x1="26" y1="30" x2="26" y2="33" stroke="#4fc3f7" stroke-width="1.5"/>
  <line x1="10" y1="14" x2="7"  y2="14" stroke="#4fc3f7" stroke-width="1.5"/>
  <line x1="10" y1="20" x2="7"  y2="20" stroke="#4fc3f7" stroke-width="1.5"/>
  <line x1="10" y1="26" x2="7"  y2="26" stroke="#4fc3f7" stroke-width="1.5"/>
  <line x1="30" y1="14" x2="33" y2="14" stroke="#4fc3f7" stroke-width="1.5"/>
  <line x1="30" y1="20" x2="33" y2="20" stroke="#4fc3f7" stroke-width="1.5"/>
  <line x1="30" y1="26" x2="33" y2="26" stroke="#4fc3f7" stroke-width="1.5"/>
</svg>
